<svg width="237" height="120" viewBox="0 0 237 120" fill="none" xmlns="http://www.w3.org/2000/svg">
<rect width="237" height="120" fill="#F2EACC"/>
<g clip-path="url(#clip0_2801_66)">
<path fill-rule="evenodd" clip-rule="evenodd" d="M67.6313 55.2962C69.8653 64.8193 63.7906 74.3515 54.0958 76.5462C52.7381 76.8518 51.3805 77 50.0449 77C41.83 77.0031 34.3819 71.4435 32.4618 63.2507C30.2305 53.7274 36.3021 44.1948 45.9972 42L46.9148 45.9112C39.4133 47.609 34.715 54.9838 36.4435 62.3523C38.172 69.721 45.6798 74.336 53.1813 72.6381C60.6828 70.9403 65.381 63.5655 63.6526 56.197L67.6313 55.2962ZM45.0545 52.4031L45.0586 52.4002L45.0607 52.4031H45.0545ZM45.0586 52.4002C46.9151 51.1059 49.173 50.5975 51.4183 50.9708C53.6652 51.3443 55.6295 52.5513 56.9494 54.3757C58.2692 56.2001 58.7878 58.4196 58.4075 60.6268C58.0273 62.834 56.7985 64.7633 54.9412 66.0598C51.1072 68.7362 45.7741 67.8534 43.0463 64.0873C42.446 63.2569 42.0092 62.3431 41.7484 61.3677L37.7981 62.3894C38.1846 63.8341 38.832 65.1863 39.7182 66.4118C42.1757 69.8074 46.0664 71.6164 50.0167 71.6164C52.5465 71.6164 55.0983 70.8725 57.3108 69.3259C60.0574 67.4089 61.877 64.5534 62.4395 61.2905C62.999 58.0276 62.2322 54.7431 60.2806 52.0482C58.3289 49.3501 55.422 47.5627 52.1002 47.0102C48.7785 46.4607 45.4347 47.2139 42.6911 49.1309L45.0586 52.4002ZM50.5728 56.3183C50.4256 56.2968 50.2721 56.2814 50.1186 56.2813C48.435 56.2822 47.0625 57.6278 47.0625 59.2849C47.0625 60.2573 47.537 61.1216 48.2693 61.6711L46.654 65.4187C44.4603 64.2178 42.974 61.9212 42.974 59.2849C42.974 55.4169 46.1795 52.2682 50.1172 52.2682C50.8368 52.2682 51.5314 52.3763 52.1882 52.5707L50.5728 56.3183ZM99.8402 58.0941C100.956 54.3712 104.457 51.6516 108.608 51.6516C113.658 51.6516 117.75 55.6708 117.75 60.6315C117.75 65.5924 113.655 69.6116 108.608 69.6116C105.368 69.6116 102.521 67.9539 100.899 65.4534C99.8369 68.031 97.505 69.6393 94.2995 69.6393C91.0941 69.6393 88.0425 67.355 87.4424 64.2433C87.1531 62.7308 87.282 61.4064 87.5306 60.1562C87.7003 59.2949 88.0364 58.3071 89.0106 56.5785C89.4978 55.7079 90.3778 54.6028 91.5812 53.6735C93.6427 52.0807 95.4528 51.6547 95.4528 51.6547H97.6277L97.7253 51.7967C97.7253 51.7967 96.534 52.6425 95.3807 53.8681C94.2273 55.0904 93.6052 56.2049 93.6052 56.2049C96.4491 55.5628 98.6362 56.7883 99.8402 58.0941ZM91.0093 62.6381C91.0093 64.518 92.4331 65.867 94.3938 65.867C96.3516 65.867 97.7754 64.515 97.7754 62.6381C97.7754 60.7612 96.3582 59.4092 94.3938 59.4092C92.4298 59.4092 91.0093 60.7582 91.0093 62.6381ZM102.995 60.6285C102.995 63.6753 105.509 66.1418 108.608 66.1418C111.71 66.1418 114.221 63.6753 114.221 60.6285C114.221 57.5816 111.71 55.1152 108.608 55.1152C105.507 55.1152 102.995 57.5816 102.995 60.6285ZM73.9071 51.6548H86.553V51.6517L86.6505 51.7937L82.6026 57.0045C84.3752 57.4305 85.7044 58.3906 86.4494 59.8137C85.9243 61.5177 85.9121 63.7556 86.6097 65.6603C85.5914 68.1237 83.1999 69.6333 80.2331 69.6333C76.3111 69.6333 73.3225 66.7192 73.4451 62.9809H77.0937C77.1409 64.7682 78.4638 65.9721 80.205 65.9721C82.1188 65.9721 83.2942 64.5213 83.2942 62.9562C83.2942 61.2213 81.8202 59.7519 79.5416 59.7519H76.3552L76.2577 59.6099L79.9317 54.9084H73.9071V51.6548ZM119.695 51.7731H122.8V69.3163H119.695V51.7731ZM133.859 57.191C132.925 56.6261 131.788 56.342 130.446 56.342C129.246 56.342 128.159 56.6292 127.188 57.2034C126.217 57.7775 125.45 58.5585 124.891 59.5432C124.331 60.528 124.048 61.6578 124.048 62.9296C124.048 64.2015 124.325 65.2726 124.877 66.282C125.431 67.2915 126.204 68.0911 127.2 68.6807C128.196 69.2703 129.356 69.5666 130.682 69.5666C132.008 69.5666 133.143 69.2765 134.129 68.693C135.117 68.1127 135.807 67.3718 136.204 66.4704L133.692 65.2603C133.41 65.7419 133.018 66.1339 132.521 66.4365C132.024 66.739 131.418 66.8902 130.707 66.8902C129.774 66.8902 128.995 66.6124 128.363 66.0537C127.731 65.4949 127.367 64.751 127.272 63.8187H136.562C136.625 63.6489 136.669 63.4513 136.694 63.226C136.719 63.0006 136.729 62.7722 136.729 62.5407C136.729 61.4078 136.483 60.3768 135.993 59.4444C135.503 58.5122 134.793 57.7651 133.859 57.1972V57.191ZM127.342 61.4849C127.514 60.6483 127.882 60.0002 128.445 59.5402C129.004 59.0833 129.673 58.8549 130.446 58.8549C131.267 58.8549 131.952 59.0987 132.495 59.5896C133.039 60.0804 133.344 60.7101 133.407 61.4881H127.342V61.4849ZM144.174 56.342C145.846 56.342 147.235 56.8947 148.315 57.9875L148.319 57.9843V56.6199H151.078V69.3165H148.319V67.9336C147.241 69.0357 145.852 69.5944 144.176 69.5944C142.334 69.5944 140.751 68.9431 139.463 67.6527C138.199 66.3654 137.558 64.7787 137.558 62.9575C137.558 61.1361 138.206 59.5649 139.485 58.2838C140.773 56.9965 142.351 56.342 144.174 56.342ZM147.096 65.7975C147.881 65.0689 148.293 64.1614 148.315 63.0933V62.8401C148.29 61.7752 147.881 60.8675 147.096 60.139C146.289 59.392 145.418 59.0278 144.292 59.0278C143.168 59.0278 142.238 59.4044 141.446 60.1822C140.654 60.9602 140.27 61.8524 140.27 62.9575C140.27 64.0626 140.654 64.9763 141.446 65.7542C142.234 66.5321 143.215 66.9088 144.292 66.9088C145.371 66.9088 146.289 66.5444 147.096 65.7975ZM156.924 56.9014C156.323 57.1792 155.858 57.6855 155.525 58.4139V56.6205H152.611V69.3172H155.717V62.2325C155.717 61.2694 155.99 60.5224 156.533 59.9853C157.077 59.4481 157.785 59.1826 158.655 59.1826H159.767V56.4816H159.011C158.221 56.4816 157.524 56.6205 156.924 56.9014ZM167.216 56.342C168.162 56.342 169.004 56.5428 169.739 56.9471L169.742 56.9502C170.478 57.3546 171.05 57.9164 171.461 58.6387C171.873 59.3611 172.077 60.1946 172.077 61.1423V69.3228H168.972V61.8647C168.972 61.025 168.73 60.3614 168.249 59.8735C167.769 59.3828 167.143 59.1389 166.367 59.1389C165.59 59.1389 164.962 59.3858 164.481 59.8828C164 60.3798 163.759 61.0404 163.759 61.8615V69.3197H160.653V56.623H163.567V58.1819C163.913 57.5768 164.406 57.12 165.047 56.8082C165.689 56.4964 166.411 56.342 167.216 56.342ZM175.154 52.1902C174.302 52.1902 173.585 52.9064 173.585 53.7553C173.585 54.5331 174.362 55.2957 175.154 55.2957C176.018 55.2957 176.747 54.5887 176.747 53.7553C176.747 52.8785 176.046 52.1902 175.154 52.1902ZM173.799 56.6197H176.559V69.3164H173.799V56.6197ZM187.608 56.9471C186.873 56.5428 186.03 56.342 185.084 56.342C184.28 56.342 183.557 56.4964 182.916 56.8082C182.274 57.12 181.781 57.5768 181.436 58.1819V56.623H178.523V69.3197H181.628V61.8615C181.628 61.0404 181.87 60.3798 182.35 59.8828C182.831 59.3858 183.459 59.1389 184.236 59.1389C185.012 59.1389 185.637 59.3828 186.118 59.8735C186.599 60.3614 186.841 61.025 186.841 61.8647V69.3228H189.946V61.1423C189.946 60.1946 189.742 59.3611 189.33 58.6387C188.918 57.9164 188.346 57.3546 187.611 56.9502L187.608 56.9471ZM201.055 58.0861V56.6198H201.062H204V68.6528C204 69.7547 203.732 70.7395 203.195 71.6101C202.658 72.4805 201.917 73.1628 200.967 73.6598C200.019 74.1568 198.928 74.4037 197.696 74.4037C196.241 74.4037 194.965 74.0673 193.868 73.3912C192.772 72.7152 192.017 71.8199 191.605 70.7024L194.497 69.6313C194.685 70.2209 195.062 70.6994 195.622 71.0636C196.185 71.4279 196.876 71.6101 197.696 71.6101C198.626 71.6101 199.393 71.3477 199.993 70.8291C200.593 70.3104 200.895 69.585 200.895 68.6528V67.279C199.977 68.273 198.739 68.77 197.174 68.77C195.97 68.77 194.899 68.4984 193.95 67.955C193.001 67.4118 192.259 66.6678 191.721 65.7201C191.184 64.7724 190.917 63.7259 190.917 62.5313C190.917 61.3366 191.184 60.2747 191.721 59.3424C192.259 58.4102 192.991 57.6755 193.925 57.1414C194.855 56.6074 195.914 56.3389 197.099 56.3389C198.758 56.3389 200.075 56.9223 201.055 58.0861ZM197.548 65.9547C198.526 65.9547 199.327 65.6368 199.953 65.0009L199.955 65.0039C200.581 64.3681 200.892 63.5531 200.892 62.5591C200.892 61.5651 200.581 60.747 199.955 60.1018C199.333 59.4567 198.532 59.1356 197.551 59.1356C196.904 59.1356 196.32 59.2838 195.798 59.5771C195.276 59.8734 194.871 60.2809 194.579 60.7996C194.283 61.3181 194.139 61.9047 194.139 62.556C194.139 63.5345 194.456 64.3434 195.097 64.9885C195.735 65.6337 196.571 65.9547 197.548 65.9547Z" fill="black"/>
</g>
<defs>
<clipPath id="clip0_2801_66">
<rect width="172" height="35" fill="white" transform="translate(32 42)"/>
</clipPath>
</defs>
</svg>
