<svg width="237" height="120" viewBox="0 0 237 120" fill="none" xmlns="http://www.w3.org/2000/svg">
<rect width="237" height="120" fill="#F2EACC"/>
<g clip-path="url(#clip0_2843_20)">
<path d="M177.807 33.7085H58.3643V85.1887H177.807V33.7085Z" stroke="black" stroke-width="0.560654" stroke-miterlimit="10"/>
<path d="M87.2197 63.3762V74.2859H97.4634V44.9624L87.2197 63.3762Z" fill="black"/>
<path d="M69.9316 74.2859H81.1512L87.2198 63.3762V44.9624L69.9316 74.2859Z" fill="black"/>
<path d="M87.2197 44.9624V63.3762L97.4634 44.9624H87.2197Z" fill="black"/>
<path d="M117.865 56.2668V65.7642H116.637V64.1312C116.114 64.7534 115.529 65.2218 114.878 65.5364C114.227 65.851 113.517 66.0076 112.746 66.0076C111.375 66.0076 110.203 65.5207 109.233 64.5455C108.263 63.5703 107.778 62.3858 107.778 60.9892C107.778 59.5926 108.268 58.4522 109.248 57.4798C110.227 56.5089 111.406 56.022 112.783 56.022C113.578 56.022 114.297 56.1871 114.942 56.5188C115.587 56.8506 116.152 57.3488 116.638 58.0109V56.2654H117.867L117.865 56.2668ZM112.884 57.2008C112.19 57.2008 111.55 57.3673 110.963 57.7019C110.376 58.0365 109.909 58.5049 109.562 59.1099C109.215 59.715 109.042 60.3542 109.042 61.0276C109.042 61.701 109.216 62.336 109.566 62.9453C109.916 63.5561 110.385 64.0302 110.976 64.3704C111.566 64.7107 112.199 64.8801 112.874 64.8801C113.549 64.8801 114.203 64.7121 114.813 64.3747C115.424 64.0373 115.893 63.5817 116.223 63.0051C116.552 62.4299 116.717 61.7822 116.717 61.0604C116.717 59.9627 116.348 59.043 115.61 58.3056C114.872 57.5681 113.963 57.1979 112.884 57.1979" fill="black"/>
<path d="M119.561 65.7639V52.6006H120.806V57.8995C121.328 57.2702 121.913 56.8019 122.559 56.4901C123.205 56.1797 123.914 56.0231 124.685 56.0231C126.055 56.0231 127.225 56.51 128.194 57.4852C129.164 58.4604 129.649 59.6435 129.649 61.033C129.649 62.4225 129.159 63.5786 128.181 64.5509C127.202 65.5233 126.026 66.0088 124.649 66.0088C123.86 66.0088 123.146 65.8422 122.506 65.5119C121.865 65.1802 121.299 64.6819 120.806 64.0185V65.7639H119.561ZM124.547 64.83C125.24 64.83 125.88 64.6634 126.466 64.3274C127.052 63.9929 127.518 63.523 127.864 62.918C128.211 62.3129 128.384 61.6723 128.384 60.9974C128.384 60.3226 128.21 59.6791 127.86 59.0684C127.51 58.4576 127.041 57.9821 126.451 57.6418C125.862 57.3016 125.233 57.1307 124.563 57.1307C123.894 57.1307 123.235 57.3016 122.622 57.6418C122.009 57.9821 121.538 58.4405 121.209 59.0171C120.881 59.5937 120.715 60.2429 120.715 60.9633C120.715 62.0638 121.084 62.982 121.822 63.7224C122.559 64.4612 123.467 64.8314 124.544 64.8314" fill="black"/>
<path d="M136.371 57.3057L135.569 58.1172C134.903 57.4822 134.251 57.1662 133.615 57.1662C133.209 57.1662 132.862 57.2971 132.575 57.5591C132.287 57.8211 132.142 58.1271 132.142 58.4759C132.142 58.7849 132.261 59.0782 132.499 59.3572C132.738 59.6419 133.237 59.9766 133.998 60.361C134.926 60.8322 135.556 61.2863 135.89 61.7234C136.217 62.1661 136.381 62.6631 136.381 63.2155C136.381 63.9956 136.101 64.6561 135.543 65.1971C134.984 65.7381 134.286 66.0086 133.448 66.0086C132.889 66.0086 132.354 65.8891 131.846 65.6514C131.338 65.4122 130.916 65.0832 130.584 64.6647L131.368 63.792C132.004 64.4967 132.679 64.8484 133.394 64.8484C133.895 64.8484 134.319 64.6917 134.67 64.3771C135.02 64.0625 135.196 63.6937 135.196 63.268C135.196 62.9192 135.08 62.6076 134.849 62.3342C134.617 62.0666 134.092 61.729 133.279 61.3219C132.405 60.8791 131.81 60.4435 131.494 60.0121C131.179 59.5821 131.021 59.0896 131.021 58.5372C131.021 57.8154 131.272 57.2161 131.775 56.7392C132.277 56.2622 132.912 56.0229 133.679 56.0229C134.57 56.0229 135.468 56.4501 136.372 57.3057" fill="black"/>
<path d="M142.861 56.0229C144.354 56.0229 145.591 56.5526 146.572 57.6118C147.464 58.5785 147.91 59.7218 147.91 61.0429C147.91 62.3641 147.438 63.5287 146.496 64.521C145.553 65.5133 144.342 66.0086 142.861 66.0086C141.38 66.0086 140.16 65.5133 139.217 64.521C138.275 63.5287 137.803 62.3698 137.803 61.0429C137.803 59.7161 138.25 58.587 139.14 57.6203C140.122 56.5554 141.362 56.0229 142.859 56.0229M142.855 57.2188C141.818 57.2188 140.926 57.5947 140.183 58.345C139.438 59.0952 139.066 60.0037 139.066 61.0686C139.066 61.7548 139.236 62.3953 139.576 62.989C139.916 63.5827 140.375 64.0411 140.951 64.3643C141.529 64.6875 142.164 64.8484 142.855 64.8484C143.546 64.8484 144.179 64.6875 144.757 64.3643C145.335 64.0411 145.794 63.5827 146.132 62.989C146.471 62.3953 146.642 61.7548 146.642 61.0686C146.642 60.0037 146.268 59.0952 145.521 58.345C144.773 57.5947 143.885 57.2188 142.855 57.2188Z" fill="black"/>
<path d="M150.916 57.5764C150.892 57.6006 150.874 57.6262 150.852 57.6504V56.2666H149.578V65.764H150.852V60.7199C150.878 59.7646 151.226 58.9431 151.903 58.2612C152.607 57.5508 153.45 57.1963 154.43 57.1963L154.434 56.0645C153.017 56.0645 151.844 56.5684 150.917 57.575" fill="black"/>
<path d="M156.149 65.7639V52.6006H157.395V57.8995C157.917 57.2702 158.502 56.8019 159.148 56.4901C159.794 56.1797 160.505 56.0231 161.274 56.0231C162.644 56.0231 163.814 56.51 164.784 57.4852C165.754 58.4604 166.239 59.6435 166.239 61.033C166.239 62.4225 165.75 63.5786 164.771 64.5509C163.794 65.5233 162.616 66.0088 161.241 66.0088C160.452 66.0088 159.738 65.8422 159.097 65.5119C158.457 65.1802 157.891 64.6819 157.398 64.0185V65.7639H156.152H156.149ZM161.136 64.83C161.829 64.83 162.469 64.6634 163.055 64.3274C163.641 63.9929 164.107 63.523 164.454 62.918C164.8 62.3129 164.974 61.6723 164.974 60.9974C164.974 60.3226 164.8 59.6791 164.45 59.0684C164.102 58.4576 163.631 57.9821 163.042 57.6418C162.452 57.3016 161.823 57.1307 161.154 57.1307C160.484 57.1307 159.825 57.3016 159.212 57.6418C158.599 57.9821 158.129 58.4405 157.801 59.0171C157.471 59.5937 157.307 60.2429 157.307 60.9633C157.307 62.0638 157.676 62.982 158.413 63.7224C159.151 64.4612 160.059 64.8314 161.136 64.8314" fill="black"/>
</g>
<defs>
<clipPath id="clip0_2843_20">
<rect width="100" height="32" fill="white" transform="translate(69 44)"/>
</clipPath>
</defs>
</svg>
