<svg width="237" height="120" viewBox="0 0 237 120" fill="none" xmlns="http://www.w3.org/2000/svg">
<rect width="237" height="120" fill="#F2EACC"/>
<g clip-path="url(#clip0_2837_2046)">
<path d="M67.878 64.5582C65.4125 64.5582 63.6099 62.6934 63.6099 60.2693C63.6099 57.8037 65.3917 55.939 67.8573 55.939C69.4112 55.939 70.6958 56.7056 71.276 57.8452L74.0316 56.2912C72.9749 54.1779 70.6337 52.8104 67.8573 52.8104C63.6099 52.8104 60.3984 56.0219 60.3984 60.2693C60.3984 64.5167 63.6513 67.6867 67.878 67.6867C70.8616 67.6867 73.3686 66.1328 74.4667 63.7708L71.566 62.4448C70.903 63.7708 69.5356 64.5582 67.878 64.5582Z" fill="black"/>
<path d="M82.7541 64.5582C80.3922 64.5582 78.5689 62.6934 78.5689 60.2693C78.5689 57.8037 80.3922 55.939 82.7541 55.939C85.1161 55.939 86.9601 57.8037 86.9601 60.2693C86.9601 62.6934 85.1161 64.5582 82.7541 64.5582ZM82.7541 52.8104C78.5689 52.8104 75.3574 56.0219 75.3574 60.2693C75.3574 64.5167 78.5689 67.6867 82.7541 67.6867C86.9394 67.6867 90.1716 64.496 90.1716 60.2693C90.1716 56.0219 86.9394 52.8104 82.7541 52.8104Z" fill="black"/>
<path d="M92.4512 55.9393V67.397H95.7041V56.478C95.7041 56.3123 95.8284 56.1879 95.9941 56.1879H100.635V53.0801H95.2897C93.7358 53.1008 92.4512 54.3647 92.4512 55.9393Z" fill="black"/>
<path d="M110.415 52.8105C108.509 52.8105 106.997 53.7429 106.085 55.359V53.1006H102.832V67.3968H106.085V59.6478C106.085 57.3895 107.494 55.9391 109.628 55.9391C111.7 55.9391 113.088 57.4102 113.088 59.6478V67.3968H116.362V59.2335C116.341 55.2761 114.062 52.8105 110.415 52.8105Z" fill="black"/>
<path d="M121.955 58.5497C122.453 56.7679 123.861 55.7734 125.788 55.7734C127.757 55.7734 129.145 56.9336 129.414 58.5497H121.955ZM125.954 52.8105C121.831 52.8105 118.578 56.022 118.578 60.1865C118.578 64.4547 121.872 67.7076 125.996 67.7076C128.958 67.7076 131.341 66.5473 132.398 64.5997L129.787 62.9422C129.124 64.061 127.653 64.7655 126.037 64.7655C123.82 64.7655 122.287 63.4809 121.852 61.3468H132.667C132.75 60.9324 132.791 60.0208 132.791 59.6478C132.833 55.7941 129.829 52.8105 125.954 52.8105Z" fill="black"/>
<path d="M135.111 55.9392V67.3969H138.364V56.4779C138.364 56.3121 138.489 56.1878 138.654 56.1878H143.316V53.08H137.971C136.375 53.1007 135.111 54.3645 135.111 55.9392Z" fill="black"/>
<path d="M147.543 57.0587C147.543 56.1264 148.33 55.5462 149.532 55.5462C150.734 55.5462 152.785 56.0642 153.925 57.0587L155.209 54.5517C153.925 53.3914 151.853 52.832 149.864 52.832C146.59 52.832 144.311 54.676 144.311 57.3281C144.311 62.6114 152.267 60.7882 152.267 63.4195C152.267 64.3311 151.335 64.9941 149.905 64.9941C148.289 64.9941 146.196 64.269 145.078 63.2123L143.793 65.6779C145.202 66.9417 147.688 67.7498 149.988 67.7498C153.262 67.7498 155.582 65.8851 155.582 63.2952C155.541 57.9911 147.543 59.4829 147.543 57.0587Z" fill="black"/>
<path d="M175.451 64.5582C173.089 64.5582 171.266 62.6934 171.266 60.2693C171.266 57.8037 173.089 55.939 175.451 55.939C177.813 55.939 179.657 57.8037 179.657 60.2693C179.657 62.6934 177.813 64.5582 175.451 64.5582ZM175.451 52.8104C171.266 52.8104 168.055 56.0219 168.055 60.2693C168.055 64.5167 171.266 67.6867 175.451 67.6867C179.637 67.6867 182.869 64.496 182.869 60.2693C182.869 56.0219 179.637 52.8104 175.451 52.8104Z" fill="black"/>
<path d="M192.732 52.8105C190.825 52.8105 189.313 53.7429 188.401 55.359V53.1006H185.148V67.3968H188.401V59.6478C188.401 57.3895 189.81 55.9391 191.944 55.9391C194.016 55.9391 195.404 57.4102 195.404 59.6478V67.3968H198.678V59.2335C198.657 55.2761 196.378 52.8105 192.732 52.8105Z" fill="black"/>
<path d="M204.272 58.5496C204.769 56.7678 206.178 55.7733 208.105 55.7733C210.073 55.7733 211.461 56.9335 211.731 58.5496H204.272ZM215.149 59.627C215.149 55.794 212.145 52.8104 208.271 52.8104C204.147 52.8104 200.895 56.0219 200.895 60.1864C200.895 64.4546 204.189 67.7075 208.312 67.7075C211.275 67.7075 213.657 66.5472 214.714 64.5996L212.104 62.9421C211.441 64.0609 209.969 64.7653 208.353 64.7653C206.136 64.7653 204.603 63.4808 204.168 61.3467H214.984C215.129 60.9116 215.149 60 215.149 59.627Z" fill="black"/>
<path d="M162.606 63.8953V61.9062V56.2085H166.356V53.1006H162.606V49.2676H159.353V53.1006H156.598V56.2085H159.353V64.1853V64.5997C159.353 66.1744 160.617 67.4382 162.192 67.4382H162.606H166.936V64.1853H162.876C162.731 64.1853 162.606 64.0403 162.606 63.8953Z" fill="black"/>
<path d="M50.8272 62.4869C49.7083 69.7593 43.4304 75.3535 35.8265 75.3535C27.456 75.3328 20.6602 68.5576 20.6602 60.1664C20.6602 51.7751 27.456 45 35.8265 45C43.4097 45 49.7083 50.5734 50.8272 57.8666C49.2732 59.1097 47.3256 59.8349 45.1916 59.8349C40.219 59.8349 36.158 55.8775 36.158 50.9464C36.158 50.8635 36.158 50.4698 35.8265 50.4698C35.495 50.4698 35.495 50.8842 35.495 50.9464C35.495 55.7118 31.5791 59.8349 26.6065 59.8349C26.5444 59.8349 26.1507 59.8142 26.1507 60.1664C26.1507 60.5186 26.5651 60.4979 26.6065 60.4979C31.3926 60.4979 35.495 64.4552 35.495 69.3864C35.495 69.4693 35.5365 69.8629 35.8265 69.8629C36.1166 69.8629 36.158 69.5107 36.158 69.3864C36.158 64.5174 40.1775 60.4979 45.1916 60.4979C47.2842 60.4979 49.2732 61.2438 50.8272 62.4869Z" fill="black"/>
</g>
<defs>
<clipPath id="clip0_2837_2046">
<rect width="194.49" height="30.3328" fill="white" transform="translate(20.6602 45)"/>
</clipPath>
</defs>
</svg>
