<svg width="237" height="120" viewBox="0 0 237 120" fill="none" xmlns="http://www.w3.org/2000/svg">
<rect width="237" height="120" fill="#F2EACC"/>
<g clip-path="url(#clip0_2837_2023)">
<path fill-rule="evenodd" clip-rule="evenodd" d="M85.2 66.422V49.3208H80.5956V57.3252H80.5364C79.8702 56.3257 78.476 55.6584 76.6291 55.6584C73.087 55.6584 69.9694 58.5773 70.0002 63.5727C70.0002 68.1816 72.8143 71.1829 76.3307 71.1829C78.2342 71.1829 80.0528 70.3354 80.9608 68.6968H81.0508L81.2334 70.8506H85.3209C85.2592 69.8484 85.2 68.0914 85.2 66.422ZM80.5364 61.4498C80.5845 61.7296 80.6043 62.0136 80.5956 62.2974V64.2451C80.5971 64.5991 80.567 64.9526 80.5055 65.3013C80.2566 66.5921 79.1249 67.5221 77.8123 67.5143C75.9037 67.5143 74.6612 65.9377 74.6612 63.4207C74.6612 61.084 75.721 59.2059 77.8406 59.2059C79.1579 59.2161 80.2854 60.1547 80.5364 61.4498Z" fill="black"/>
<path fill-rule="evenodd" clip-rule="evenodd" d="M94.1926 71.1837C98.1591 71.1837 102.005 68.6976 102.005 63.2694C102.005 58.7816 98.977 55.6592 94.4652 55.6592C89.6885 55.6592 86.5322 58.7507 86.5322 63.5425C86.5322 68.3344 89.8634 71.1837 94.1926 71.1837ZM94.3135 67.8783C92.3456 67.8783 91.2859 65.9693 91.2859 63.4214C91.2859 61.2367 92.1321 58.9645 94.3135 58.9645C96.4022 58.9645 97.251 61.2084 97.251 63.3905C97.251 66.0904 96.1295 67.8783 94.3135 67.8783Z" fill="black"/>
<path d="M114.539 70.4575C113.721 70.8517 112.178 71.1531 110.423 71.1531C105.641 71.1531 102.583 68.2136 102.583 63.5737C102.583 59.2379 105.549 55.6879 111.072 55.6879C112.261 55.6821 113.444 55.8754 114.57 56.2598L113.842 59.6862C113.026 59.3565 112.149 59.2021 111.27 59.2328C108.847 59.2328 107.272 60.9588 107.303 63.3857C107.303 66.0856 109.119 67.5412 111.36 67.5412C112.262 67.5641 113.159 67.3992 113.994 67.0569L114.539 70.4523" fill="black"/>
<path fill-rule="evenodd" clip-rule="evenodd" d="M122.958 67.7285C120.808 67.7285 118.899 66.8165 118.778 64.9075V64.8972H128.316C128.418 64.2954 128.469 63.6862 128.468 63.0758C128.468 59.4072 126.652 55.6768 121.867 55.6768C116.72 55.6768 114.39 59.8323 114.39 63.5936C114.39 68.2309 117.265 71.1421 122.292 71.1421C124.288 71.1421 126.135 70.8406 127.65 70.2043L127.045 67.0793C125.73 67.5275 124.347 67.7471 122.958 67.7285ZM121.595 58.7399C123.714 58.7399 124.198 60.6206 124.198 61.7439H118.75C118.871 60.5305 119.658 58.7399 121.595 58.7399Z" fill="black"/>
<path fill-rule="evenodd" clip-rule="evenodd" d="M134.314 49.3208H129.712V66.4194C129.712 68.0888 129.65 69.8768 129.591 70.848H133.493L133.676 68.787H133.74C134.769 70.5466 136.464 71.1829 138.19 71.1829C141.58 71.1829 144.942 68.5139 144.942 63.1785C144.973 58.6288 142.398 55.6867 138.856 55.6867C136.796 55.6867 135.252 56.506 134.375 57.7812H134.314V49.3208ZM134.404 65.3606C134.341 65.0929 134.311 64.8187 134.314 64.5439V62.3592C134.313 62.0734 134.343 61.7884 134.404 61.5091C134.672 60.22 135.785 59.2815 137.099 59.2368C139.25 59.2368 140.279 61.0556 140.279 63.3588C140.279 66.0279 139.067 67.5452 137.099 67.5452C135.808 67.5184 134.699 66.6196 134.404 65.3606Z" fill="black"/>
<path fill-rule="evenodd" clip-rule="evenodd" d="M153.205 71.1837C157.174 71.1837 161.017 68.6976 161.017 63.2694H161.02C161.02 58.7816 157.993 55.6592 153.481 55.6592C148.696 55.6592 145.548 58.7507 145.548 63.5425C145.548 68.3344 148.876 71.1837 153.205 71.1837ZM153.332 67.8783C151.361 67.8783 150.302 65.9693 150.302 63.4214H150.299C150.299 61.2367 151.148 58.9645 153.332 58.9645C155.42 58.9645 156.266 61.2084 156.266 63.3905C156.266 66.0904 155.147 67.8783 153.332 67.8783Z" fill="black"/>
<path fill-rule="evenodd" clip-rule="evenodd" d="M165.644 60.3561C166.488 59.9887 167.023 59.1456 166.999 58.2251C166.995 57.636 166.756 57.0729 166.336 56.6601C165.916 56.2474 165.35 56.0189 164.761 56.025C163.842 56.018 163.011 56.5705 162.659 57.4214C162.308 58.2724 162.508 59.2517 163.164 59.8967C163.82 60.5418 164.802 60.7235 165.644 60.3561ZM163.049 58.2329C163.038 58.6927 163.213 59.1375 163.534 59.4667C163.857 59.7978 164.3 59.9837 164.761 59.9821C165.217 59.9803 165.652 59.7938 165.968 59.4651C166.283 59.1365 166.452 58.6937 166.436 58.238C166.46 57.6162 166.143 57.0309 165.608 56.7128C165.075 56.3946 164.41 56.3946 163.876 56.7128C163.343 57.03 163.026 57.613 163.049 58.2329ZM164.402 59.3639H163.887V57.1663C164.166 57.1231 164.448 57.1007 164.731 57.0993C164.993 57.0715 165.256 57.1323 165.479 57.2719C165.63 57.3804 165.716 57.5576 165.708 57.7434C165.691 57.9987 165.504 58.2102 165.253 58.2586V58.287C165.466 58.354 165.574 58.5292 165.642 58.8228C165.67 59.008 165.723 59.1883 165.801 59.3587H165.265C165.178 59.1909 165.119 59.0099 165.09 58.8228C165.052 58.5961 164.918 58.4879 164.638 58.4879H164.396L164.402 59.3639ZM164.656 58.1324H164.414L164.422 57.5012C164.514 57.481 164.608 57.4715 164.702 57.4729C165.024 57.4729 165.171 57.5785 165.171 57.8078C165.171 58.0371 164.936 58.1324 164.656 58.1324Z" fill="black"/>
</g>
<defs>
<clipPath id="clip0_2837_2023">
<rect width="97" height="27.0328" fill="white" transform="translate(70 46.7869)"/>
</clipPath>
</defs>
</svg>
