<svg width="1440" height="310" viewBox="0 0 1440 310" fill="none" xmlns="http://www.w3.org/2000/svg">
<path d="M104.948 309.067C96.0389 309.067 86.9018 307.707 77.5362 304.988C68.399 302.496 59.9471 298.078 52.1806 291.734C44.414 285.617 37.9037 277.46 32.6499 267.264L29.9087 261.487L65.8863 243.134C71.597 251.971 77.3078 258.315 83.0185 262.166C88.9576 266.018 96.4958 267.944 105.633 267.944C116.141 267.944 124.707 264.545 131.331 257.748C137.956 251.178 141.268 241.209 141.268 227.841V182.98H144.694V116.708H141.268L153.946 74.9054H191.294V217.305C191.294 236.79 187.867 253.443 181.015 267.264C174.162 281.085 164.225 291.507 151.205 298.531C138.413 305.555 122.994 309.067 104.948 309.067ZM98.4374 232.259C83.3611 232.259 69.998 228.86 58.3481 222.063C46.9267 215.266 37.7895 205.75 30.9367 193.515C24.3122 181.281 21 167.346 21 151.713C21 135.853 24.198 121.919 30.594 109.911C37.2185 97.6758 46.3556 88.1598 58.0055 81.3627C69.6554 74.339 82.9043 70.8271 97.7522 70.8271C111.686 70.8271 123.907 74.2257 134.415 81.0229C144.923 87.82 153.146 97.2227 159.085 109.231C165.024 121.239 167.994 135.4 167.994 151.713C167.994 168.479 165.139 182.867 159.428 194.875C153.717 206.883 145.608 216.173 135.1 222.743C124.821 229.087 112.6 232.259 98.4374 232.259ZM108.031 188.757C118.539 188.757 127.105 185.246 133.73 178.222C140.583 171.198 144.009 162.362 144.009 151.713C144.009 140.611 140.583 131.548 133.73 124.524C127.105 117.501 118.539 113.989 108.031 113.989C97.5237 113.989 88.8434 117.501 81.9906 124.524C75.3661 131.548 72.0539 140.611 72.0539 151.713C72.0539 162.362 75.3661 171.198 81.9906 178.222C88.8434 185.246 97.5237 188.757 108.031 188.757Z" fill="#FFF0B3"/>
<path d="M285.636 244.154C268.961 244.154 254.227 240.642 241.435 233.618C228.871 226.595 219.049 216.626 211.968 203.711C205.115 190.797 201.688 175.616 201.688 158.17C201.688 140.951 205.115 125.771 211.968 112.63C219.049 99.4884 228.871 89.2927 241.435 82.0424C254.227 74.5656 268.961 70.8271 285.636 70.8271C302.768 70.8271 317.616 74.6789 330.18 82.3823C342.743 90.0857 352.451 100.508 359.304 113.649C366.157 126.564 369.584 141.177 369.584 157.491C369.584 160.436 369.469 163.268 369.241 165.987C369.012 168.706 368.784 170.858 368.556 172.444H240.75V137.099H330.18L324.355 151.713C324.355 139.252 321.157 129.056 314.761 121.126C308.593 113.196 298.999 109.231 285.979 109.231C274.329 109.231 264.963 112.743 257.882 119.767C251.029 126.79 247.602 136.08 247.602 147.635V166.327C247.602 178.788 251.143 188.531 258.224 195.555C265.534 202.352 275.585 205.75 288.377 205.75C299.113 205.75 307.565 203.598 313.733 199.293C320.129 194.988 325.497 189.664 329.837 183.32L363.759 202.012C356.449 215.38 346.17 225.802 332.921 233.279C319.672 240.529 303.91 244.154 285.636 244.154Z" fill="#FFF0B3"/>
<path d="M484.088 70.8271C495.281 70.8271 504.418 72.753 511.5 76.6047C518.581 80.2299 523.949 85.3277 527.604 91.8983C531.487 98.4688 534 105.946 535.142 114.329C536.512 122.485 537.198 130.982 537.198 139.818V241.095H487.172V142.537C487.172 133.021 485.459 126.79 482.032 123.845C478.606 120.673 474.037 119.087 468.326 119.087C463.529 119.087 458.504 120.106 453.25 122.146C448.225 123.958 443.313 126.564 438.516 129.962C433.719 133.361 429.494 137.212 425.839 141.517L416.93 116.368H430.978V241.095H380.952V74.9054H417.958L428.237 107.872L411.105 106.512C417.044 99.9415 423.783 93.9374 431.321 88.4997C438.859 83.062 447.083 78.7571 455.991 75.5852C464.9 72.4131 474.266 70.8271 484.088 70.8271Z" fill="#FFF0B3"/>
<path d="M631.007 243.814C612.504 243.814 597.885 239.283 587.149 230.22C576.641 221.157 571.387 206.317 571.387 185.699V76.9446L570.702 74.9054L580.981 34.8023H621.413V174.823C621.413 182.527 623.241 188.078 626.895 191.476C630.55 194.648 635.347 196.234 641.286 196.234C644.713 196.234 647.911 196.008 650.88 195.555C654.078 194.875 656.705 194.195 658.761 193.515V240.076C654.878 241.209 650.652 242.115 646.083 242.795C641.743 243.474 636.718 243.814 631.007 243.814ZM545.346 120.446V74.9054H658.761V120.446H545.346Z" fill="#FFF0B3"/>
<path d="M725.392 242.795C716.94 242.795 709.174 241.095 702.092 237.697C695.011 234.298 689.3 229.087 684.96 222.063C680.62 214.813 678.45 205.184 678.45 193.176V9.65296H728.133V175.503C728.133 183.886 729.618 189.324 732.588 191.816C735.786 194.082 739.783 195.215 744.58 195.215V241.095C742.296 241.548 739.212 241.888 735.329 242.115C731.674 242.568 728.362 242.795 725.392 242.795Z" fill="#FFF0B3"/>
<path d="M831.108 244.154C814.433 244.154 799.699 240.642 786.907 233.618C774.344 226.595 764.521 216.626 757.44 203.711C750.587 190.797 747.161 175.616 747.161 158.17C747.161 140.951 750.587 125.771 757.44 112.63C764.521 99.4884 774.344 89.2927 786.907 82.0424C799.699 74.5656 814.433 70.8271 831.108 70.8271C848.24 70.8271 863.088 74.6789 875.652 82.3823C888.216 90.0857 897.924 100.508 904.777 113.649C911.63 126.564 915.056 141.177 915.056 157.491C915.056 160.436 914.942 163.268 914.713 165.987C914.485 168.706 914.257 170.858 914.028 172.444H786.222V137.099H875.652L869.827 151.713C869.827 139.252 866.629 129.056 860.233 121.126C854.065 113.196 844.471 109.231 831.451 109.231C819.801 109.231 810.435 112.743 803.354 119.767C796.501 126.79 793.075 136.08 793.075 147.635V166.327C793.075 178.788 796.616 188.531 803.697 195.555C811.007 202.352 821.057 205.75 833.849 205.75C844.586 205.75 853.037 203.598 859.205 199.293C865.601 194.988 870.969 189.664 875.309 183.32L909.231 202.012C901.921 215.38 891.642 225.802 878.393 233.279C865.144 240.529 849.383 244.154 831.108 244.154Z" fill="#FFF0B3"/>
<path d="M963.43 74.9054L976.451 120.786V241.095H926.425V74.9054H963.43ZM965.486 148.314L956.92 144.576V106.172L960.004 102.094C962.745 98.2422 966.628 93.8241 971.654 88.8396C976.908 83.855 982.961 79.6634 989.814 76.2649C996.895 72.6397 1004.09 70.8271 1011.4 70.8271C1015.06 70.8271 1018.37 71.0537 1021.34 71.5069C1024.31 71.96 1026.71 72.753 1028.53 73.8859V119.087H1017.23C1002.61 119.087 991.07 121.466 982.618 126.224C974.395 130.755 968.684 138.119 965.486 148.314Z" fill="#FFF0B3"/>
<path d="M1081.22 245.513C1069.12 245.513 1058.38 243.248 1049.01 238.716C1039.88 233.958 1032.8 227.388 1027.77 219.005C1022.74 210.621 1020.23 200.879 1020.23 189.777C1020.23 177.995 1022.97 168.026 1028.45 159.87C1033.94 151.486 1041.25 145.029 1050.38 140.498C1059.75 135.966 1070.14 133.701 1081.56 133.701C1098.24 133.701 1111.72 137.439 1122 144.916C1132.28 152.393 1139.13 163.155 1142.56 177.202L1120.97 173.464V134.72C1120.97 128.603 1118.8 123.278 1114.46 118.747C1110.12 114.216 1103.15 111.95 1093.56 111.95C1087.39 111.95 1080.31 112.743 1072.31 114.329C1064.32 115.688 1056.09 118.407 1047.64 122.485L1032.91 87.1403C1042.96 82.1557 1053.7 78.1907 1065.12 75.2453C1076.77 72.2999 1088.65 70.8271 1100.75 70.8271C1116.29 70.8271 1129.31 73.546 1139.81 78.9837C1150.32 84.4214 1158.09 92.1248 1163.11 102.094C1168.37 112.063 1170.99 123.618 1170.99 136.759V241.095H1130.22L1120.28 208.809L1142.56 202.012C1138.9 215.606 1131.93 226.255 1121.65 233.958C1111.37 241.662 1097.9 245.513 1081.22 245.513ZM1096.64 210.168C1104.18 210.168 1110.12 208.243 1114.46 204.391C1119.03 200.539 1121.31 195.668 1121.31 189.777C1121.31 183.433 1119.03 178.448 1114.46 174.823C1110.12 171.198 1104.18 169.386 1096.64 169.386C1089.1 169.386 1083.16 171.198 1078.82 174.823C1074.48 178.448 1072.31 183.433 1072.31 189.777C1072.31 195.668 1074.48 200.539 1078.82 204.391C1083.16 208.243 1089.1 210.168 1096.64 210.168Z" fill="#FFF0B3"/>
<path d="M1241.17 241.095H1191.15V74.9054H1241.17V241.095ZM1186.69 32.5675C1186.69 23.7312 1189.32 16.5943 1194.57 11.1566C1200.06 5.71885 1207.25 3 1216.16 3C1225.07 3 1232.15 5.71885 1237.4 11.1566C1242.89 16.5943 1245.63 23.7312 1245.63 32.5675C1245.63 41.1772 1242.89 48.2009 1237.4 53.6386C1232.15 58.8498 1225.07 61.4553 1216.16 61.4553C1207.25 61.4553 1200.06 58.8498 1194.57 53.6386C1189.32 48.2009 1186.69 41.1772 1186.69 32.5675Z" fill="#FFF0B3"/>
<path d="M1366.89 70.8271C1378.08 70.8271 1387.22 72.753 1394.3 76.6047C1401.38 80.2299 1406.75 85.3277 1410.41 91.8983C1414.29 98.4688 1416.8 105.946 1417.94 114.329C1419.31 122.485 1420 130.982 1420 139.818V241.095H1369.97V142.537C1369.97 133.021 1368.26 126.79 1364.83 123.845C1361.41 120.673 1356.84 119.087 1351.13 119.087C1346.33 119.087 1341.31 120.106 1336.05 122.146C1331.03 123.958 1326.12 126.564 1321.32 129.962C1316.52 133.361 1312.3 137.212 1308.64 141.517L1299.73 116.368H1313.78V241.095H1263.75V74.9054H1300.76L1311.04 107.872L1293.91 106.512C1299.85 99.9415 1306.58 93.9374 1314.12 88.4997C1321.66 83.062 1329.88 78.7571 1338.79 75.5852C1347.7 72.4131 1357.07 70.8271 1366.89 70.8271Z" fill="#FFF0B3"/>
</svg>
