<svg width="237" height="120" viewBox="0 0 237 120" fill="none" xmlns="http://www.w3.org/2000/svg">
<rect width="237" height="120" fill="#F2EACC"/>
<g clip-path="url(#clip0_2837_2008)">
<path d="M119.762 36.209C123.66 36.0748 127.583 36.6611 131.26 37.9657C136.791 39.9074 141.734 43.4656 145.351 48.0746C146.942 50.0967 148.275 52.3193 149.32 54.6709C149.505 55.0622 149.647 55.502 149.548 55.938C149.427 56.6699 148.785 57.275 148.047 57.3481C147.281 57.4602 146.489 56.982 146.216 56.2599C144.139 51.3723 140.594 47.1269 136.172 44.1881C133.439 42.3615 130.373 41.0314 127.17 40.2867C123.04 39.3206 118.692 39.3206 114.561 40.2837C108.663 41.642 103.262 45.0252 99.4529 49.7263C97.8379 51.707 96.5043 53.9151 95.499 56.2641C95.2815 56.81 94.7816 57.2379 94.1983 57.3337C93.6359 57.4423 93.0236 57.2481 92.6315 56.8292C92.1691 56.3659 92.0179 55.6255 92.2563 55.0175C95.023 48.4762 100.146 42.981 106.445 39.7102C110.547 37.563 115.136 36.3653 119.762 36.209Z" fill="black"/>
<path d="M114.612 56.3485C114.589 56.0088 114.91 55.7546 115.229 55.7465C115.642 55.7354 116.057 55.7389 116.472 55.7448C116.76 55.7546 117.097 55.9466 117.096 56.2703C117.11 60.0712 117.087 63.8733 117.108 67.6765C118.648 65.964 120.202 64.2608 121.747 62.5535C122.052 62.2533 122.292 61.7985 122.766 61.7594C123.404 61.733 124.043 61.7487 124.682 61.7496C124.928 61.7275 125.202 61.9531 125.116 62.2158C125.015 62.4185 124.83 62.5577 124.679 62.7187C123.008 64.3886 121.33 66.0526 119.667 67.7297C121.273 69.5631 122.857 71.4153 124.456 73.2555C124.662 73.5173 124.919 73.7396 125.092 74.0283C125.218 74.2539 125.009 74.5286 124.767 74.5392C124.236 74.569 123.704 74.5392 123.171 74.552C122.895 74.5456 122.595 74.5861 122.344 74.4434C122.079 74.2914 121.918 74.0198 121.729 73.7911C120.187 71.8491 118.655 69.8995 117.107 67.9608C117.091 69.8727 117.102 71.7836 117.101 73.694C117.095 73.9146 117.14 74.1803 116.948 74.3412C116.642 74.6363 116.187 74.5328 115.806 74.552C115.467 74.5405 115.071 74.6146 114.796 74.3647C114.643 74.2454 114.603 74.0419 114.609 73.861C114.613 68.0227 114.607 62.1852 114.612 56.3485Z" fill="black"/>
<path d="M107.586 61.7188C108.359 61.4701 109.231 61.4228 109.988 61.7507C110.254 61.8755 110.563 62.1416 110.443 62.4694C110.321 62.8811 110.218 63.2975 110.073 63.702C109.966 63.9924 109.63 64.1002 109.346 64.0435C108.708 63.9341 108.082 63.7234 107.428 63.7446C106.971 63.7339 106.55 63.9788 106.238 64.2961C105.735 64.7886 105.474 65.4775 105.357 66.1609C105.264 66.6548 105.29 67.1594 105.286 67.6584C105.286 69.7554 105.287 71.8536 105.286 73.9506C105.316 74.2955 104.959 74.5297 104.647 74.5416C104.22 74.5475 103.793 74.5531 103.366 74.5382C103.058 74.522 102.71 74.2968 102.75 73.9493C102.748 70.0662 102.746 66.1844 102.751 62.3012C102.725 61.9151 103.153 61.7051 103.488 61.7413C103.909 61.769 104.484 61.6106 104.758 62.0343C104.966 62.5256 105.064 63.0562 105.259 63.5518C105.846 62.7462 106.625 62.0359 107.586 61.7188Z" fill="black"/>
<path d="M63.9961 62.0136C64.1149 61.8774 64.2537 61.73 64.4517 61.7441C65.0316 61.7385 65.6132 61.7258 66.1927 61.7526C66.4869 61.7611 66.6896 62.0196 66.7326 62.2933C67.3027 64.6117 67.8626 66.9336 68.4302 69.2527C68.5967 69.9689 68.7993 70.6778 68.9079 71.4063C69.0199 72.0608 69.042 72.725 69.1485 73.3807C69.2949 72.4448 69.4261 71.503 69.6786 70.5888C70.4207 67.8208 71.1624 65.0533 71.9054 62.2861C71.9633 61.9706 72.2601 61.7462 72.5756 61.7462C73.2211 61.73 73.8678 61.7411 74.5133 61.7411C74.8595 61.7249 75.23 61.9272 75.3133 62.2819C75.8677 64.2997 76.4153 66.3212 76.9675 68.3407C77.3026 69.6487 77.7415 70.9346 77.9311 72.2766C77.9834 72.6462 78.0345 73.0166 78.1107 73.3837C78.3189 71.2752 78.8614 69.2238 79.3077 67.1592C79.676 65.5166 80.0361 63.8722 80.4087 62.2294C80.4636 61.8995 80.8127 61.7335 81.1202 61.7428C81.6422 61.7398 82.1651 61.7249 82.6862 61.7514C82.9958 61.7603 83.1737 62.1026 83.0647 62.3786C82.0173 66.2434 80.9737 70.1107 79.9259 73.9755C79.8697 74.2855 79.5997 74.5273 79.2833 74.5324C78.4743 74.5588 77.6637 74.5388 76.8547 74.5431C76.5648 74.561 76.2582 74.4055 76.207 74.1003C75.4828 71.4425 74.773 68.7801 74.0556 66.1203C73.7959 65.195 73.6907 64.2358 73.5817 63.2841C73.4484 64.1315 73.3824 64.9928 73.1568 65.8252C72.4223 68.5639 71.6836 71.3037 70.9474 74.0428C70.8644 74.4864 70.3573 74.575 69.98 74.5461C69.2277 74.5324 68.4753 74.5635 67.7238 74.5324C67.456 74.5333 67.2495 74.3246 67.2014 74.0717C66.1454 70.2222 65.0929 66.371 64.0361 62.5224C63.9995 62.3542 64.0042 62.1827 63.9961 62.0136Z" fill="black"/>
<path d="M158.875 61.7523C159.425 61.7429 159.976 61.7407 160.525 61.7523C160.86 61.7569 161.174 61.9855 161.279 62.3049C162.228 64.7838 163.169 67.2673 164.117 69.7475C164.315 70.2508 164.453 70.7758 164.542 71.3089C164.933 69.8378 165.455 68.4063 165.913 66.9544C166.422 65.3846 166.932 63.8143 167.444 62.244C167.52 61.9707 167.781 61.7842 168.057 61.7612C168.506 61.7279 168.957 61.7569 169.406 61.745C169.669 61.748 169.982 61.7173 170.182 61.9281C170.312 62.0379 170.284 62.2205 170.23 62.3632C168.714 66.687 167.203 71.013 165.689 75.338C165.426 76.0585 165.224 76.8125 164.8 77.4606C164.193 78.4475 163.208 79.1581 162.125 79.5426C161.747 79.6597 161.357 79.9194 160.95 79.7738C160.662 79.7002 160.551 79.4 160.397 79.1794C160.286 78.9793 160.082 78.7941 160.124 78.545C160.144 78.2981 160.342 78.0971 160.576 78.0311C161.032 77.8736 161.496 77.6998 161.866 77.3775C162.764 76.6175 163.32 75.4934 163.531 74.3494C163.388 73.8414 163.123 73.3743 162.93 72.8826C161.485 69.5231 160.039 66.1625 158.59 62.8043C158.503 62.5846 158.374 62.3751 158.35 62.1367C158.353 61.8749 158.653 61.7599 158.875 61.7523Z" fill="black"/>
<path d="M91.4766 63.3776C90.6881 63.5241 89.9689 64.015 89.5686 64.7142C88.8998 65.848 88.8227 67.216 88.8529 68.5019C88.9006 69.6659 89.0875 70.9075 89.8301 71.8485C90.3841 72.5562 91.2943 72.9117 92.1792 72.898C93.0303 72.9253 93.9219 72.637 94.4988 71.9899C95.2358 71.1839 95.4725 70.0653 95.5739 69.0107C95.6186 67.9748 95.6395 66.9201 95.3708 65.9085C95.1571 65.0539 94.7057 64.1994 93.9248 63.739C93.198 63.2932 92.3001 63.2516 91.4766 63.3776ZM91.8096 61.534C93.2364 61.4462 94.7313 61.7426 95.9089 62.5878C96.9623 63.3372 97.6777 64.4919 98.0119 65.73C98.4092 67.2083 98.4074 68.7859 98.0472 70.2718C97.7079 71.6416 96.9143 72.933 95.717 73.7113C94.4374 74.5603 92.8301 74.7809 91.3284 74.5999C90.049 74.4424 88.8023 73.8812 87.9115 72.9385C86.8646 71.8417 86.3446 70.3306 86.2365 68.837C86.1049 67.1806 86.3587 65.4273 87.2801 64.0129C87.9618 62.9484 89.0454 62.1663 90.2541 61.8094C90.7583 61.6519 91.2842 61.5787 91.8096 61.534Z" fill="black"/>
<path d="M133.898 63.31C133.116 63.3603 132.361 63.8103 132.012 64.5243C131.33 65.8447 131.316 67.3813 131.35 68.8333C131.405 69.7819 131.508 70.7612 131.95 71.6178C132.248 72.1948 132.791 72.6504 133.433 72.79C134.416 73.0263 135.572 72.8262 136.27 72.05C136.943 71.284 137.164 70.2426 137.268 69.2569C137.339 68.1333 137.343 66.9866 137.064 65.8868C136.872 65.1515 136.548 64.417 135.966 63.906C135.407 63.4143 134.629 63.2248 133.898 63.31ZM137.264 56.1867C137.246 55.8887 137.551 55.6983 137.816 55.6753C138.239 55.6523 138.664 55.6634 139.089 55.668C139.412 55.6651 139.774 55.9057 139.727 56.265C139.727 62.1298 139.729 67.9935 139.727 73.8575C139.749 74.1602 139.451 74.3952 139.171 74.4135C138.833 74.4314 138.495 74.4314 138.158 74.408C137.921 74.3931 137.691 74.2411 137.61 74.0141C137.484 73.6331 137.417 73.2371 137.321 72.8496C136.853 73.4849 136.249 74.0469 135.499 74.3258C134.428 74.7197 133.238 74.7261 132.138 74.4578C131.033 74.1921 130.071 73.433 129.538 72.4336C128.701 70.9081 128.602 69.1134 128.654 67.4116C128.684 65.9575 128.961 64.4235 129.909 63.2696C130.623 62.2915 131.794 61.7303 132.977 61.5835C134.077 61.4225 135.271 61.6077 136.182 62.2745C136.613 62.5777 136.958 62.9842 137.266 63.4092C137.257 61.0023 137.259 58.5945 137.264 56.1867Z" fill="black"/>
<path d="M149.106 63.3821C148.713 63.4621 148.333 63.6196 148.016 63.8653C147.382 64.3591 147.066 65.1439 146.898 65.9061C146.653 67.1153 146.657 68.3641 146.783 69.5869C146.902 70.4853 147.127 71.4442 147.786 72.1084C148.323 72.6717 149.132 72.8782 149.889 72.8412C150.703 72.8706 151.55 72.5674 152.075 71.9279C152.731 71.1338 152.917 70.0774 153.012 69.0824C153.073 67.9123 153.074 66.7142 152.746 65.5782C152.538 64.8706 152.158 64.1668 151.517 63.7636C150.811 63.3003 149.918 63.2577 149.106 63.3821ZM148.016 61.776C149.146 61.463 150.355 61.4447 151.496 61.7058C152.556 61.9514 153.549 62.5466 154.2 63.428C154.889 64.3315 155.237 65.4518 155.382 66.5681C155.508 67.429 155.471 68.301 155.473 69.1684C155.473 70.7336 155.473 72.2992 155.468 73.8639C155.485 74.0547 155.365 74.2237 155.209 74.3229C154.947 74.4847 154.621 74.4132 154.328 74.4315C153.999 74.4289 153.567 74.4579 153.388 74.116C153.214 73.714 153.178 73.2657 153.066 72.8429C152.625 73.3785 152.169 73.9312 151.531 74.2407C150.559 74.721 149.423 74.6929 148.383 74.4898C147.111 74.2386 145.939 73.4862 145.22 72.4022C144.363 71.1398 144.052 69.5814 144.064 68.0754C144.053 66.6073 144.341 65.0894 145.157 63.8474C145.81 62.8319 146.857 62.0966 148.016 61.776Z" fill="black"/>
<path d="M170.769 71.3931C170.123 71.6303 169.716 72.3754 169.881 73.0481C170.049 73.838 170.968 74.377 171.735 74.0849C172.441 73.8691 172.887 73.0631 172.668 72.3524C172.475 71.5528 171.527 71.0802 170.769 71.3931ZM170.858 71.0555C171.242 70.995 171.658 70.9908 172.014 71.1683C172.619 71.4434 173.054 72.0935 172.989 72.7697C173.039 73.5761 172.361 74.297 171.586 74.4268C170.715 74.612 169.777 73.9806 169.599 73.1112C169.37 72.2362 169.978 71.2514 170.858 71.0555Z" fill="black"/>
<path d="M171.039 72.0385C171.038 72.2216 171.037 72.4047 171.039 72.5891C171.2 72.5793 171.365 72.5891 171.523 72.5452C171.672 72.4835 171.658 72.294 171.617 72.1671C171.463 72.0164 171.234 72.0556 171.039 72.0385ZM170.555 71.7405C171.018 71.7669 171.538 71.6362 171.955 71.8946C172.291 72.1471 172.128 72.6964 171.748 72.8134C171.858 73.103 172.01 73.3721 172.149 73.648C171.974 73.6514 171.802 73.6544 171.629 73.6573C171.504 73.4019 171.382 73.1434 171.263 72.8858C171.187 72.8837 171.113 72.8828 171.039 72.8816C171.038 73.1392 171.038 73.3968 171.038 73.6544C170.874 73.6522 170.714 73.6501 170.553 73.6488C170.554 73.0123 170.552 72.3757 170.555 71.7405Z" fill="black"/>
</g>
<defs>
<clipPath id="clip0_2837_2008">
<rect width="109" height="43.6327" fill="white" transform="translate(64 36.1836)"/>
</clipPath>
</defs>
</svg>
